<svg id="Layer_1" xmlns="http://www.w3.org/2000/svg" viewBox="0 0 225 80"><style>.st0{fill:#0019a4}</style><title>Artboard 1</title><path class="st0" d="M35.7 25.6c1-1 1.5-2.4 1.6-3.8.1-1.2-.4-2.4-1.2-3.3 1.8-.7 3.4-1.7 4.8-3 1.3-1.1 2.1-2.8 2.2-4.5 0-1.4-.5-2.7-1.5-3.7 1-.4 2-.8 3.1-1 .3-.1.6-.1.9-.2.2 0 .5 0 .5-.3s-.6-.4-.8-.4c-1.7.2-3.3.6-4.7 1.3-2.2-1.3-4.8-2-7.4-1.8-3.1 0-6.2.6-9.1 1.8-1.3.6-2.6 1.2-3.8 2-1.1.7-2.1 1.5-3 2.5-.8.8-1.5 1.7-2 2.8-.4.8-.7 1.6-.7 2.5 0 .5.1 1.1.3 1.6.6 1 1.7 1.5 2.8 1.4 2.1 0 4.1-.5 5.9-1.5 1.9-.9 3.5-2.3 4.8-4 1.3-1.7 2-3.8 2-5.9 0-.5-.3-.6-.4-.6-.4 0-.5.5-.5.7-.3 1.9-1.2 3.7-2.5 5.2-.6.8-1.3 1.5-2.1 2.1-.7.6-1.5 1.2-2.4 1.7-.8.4-1.6.8-2.4 1.1-1 .4-2.1.5-3.1.3-.8-.1-1.4-.8-1.4-1.6.2-1.3.8-2.6 1.7-3.5 1.3-1.5 2.7-2.8 4.4-3.9 3.2-2.4 7.1-3.7 11.1-3.8 3 0 5.2.6 6.6 1.7-4.5 2.4-8.5 5.6-12 9.4l-4.5 4.5-3.4 3.2c-1 .9-1.8 1.6-2.5 2.1-.6.5-1.2.9-1.9 1.2-.5.3-1 .5-1.5.6-.6.1-1.2.2-1.8.1-.7 0-1.3-.2-1.9-.5-.4-.2-.6-.5-.8-.9h.5c.4 0 .7-.1 1-.3.2-.2.4-.5.4-.8 0-.3-.1-.6-.4-.8-.4-.2-1-.3-1.5-.1-.8.1-1.3.8-1.3 1.6s.6 1.6 1.3 1.9c.9.5 1.9.8 2.9.7 1.4 0 2.8-.2 4.1-.6 2.3-.9 4.4-2.1 6.2-3.7 2.4-1.9 4.5-4 6.4-6.4 1.8-2.3 3.8-4.5 5.9-6.5 1.2-1.2 2.6-2.3 4-3.2l.9-.6c.2-.1.4-.3.7-.4.4.5.6 1.2.6 1.9 0 .8-.2 1.7-.5 2.5-1.1 2.4-3 4.3-5.5 5.3-.6-.3-1.3-.4-1.9-.4-.5 0-1 0-1.5.1-.3.1-.7.1-1 .2-.3.1-.5.2-.7.4-.2.1-.3.4-.3.6 0 .2.2.5.5.7.6.2 1.2.3 1.8.3 1 0 2.1-.2 3.1-.6.1.3.2.7.2 1.1 0 .7-.1 1.4-.4 2-.7 2.2-2.2 4-4.2 5.2-1.1.7-2.3 1.1-3.6 1.2-2.3 0-2.3-.9-2.3-1.1.1-.9.6-1.8 1.3-2.3.5-.4.9-.8 1.5-1.2.6-.3 1.1-.6 1.8-.9.6-.3 1.3-.5 2-.7.5-.2 1.1-.3 1.7-.3.3 0 1 0 1-.5 0-.1-.1-.5-.6-.5-1.6 0-3.2.4-4.6 1.1-.7.3-1.4.7-2 1.1-.6.4-1.1.8-1.6 1.3-.6.5-1 1-1.3 1.5-.3.4-.4.9-.4 1.5 0 .5.3 1 .7 1.3.3.2.6.4 1 .5.6.1 1.2.2 1.8.2.8 0 1.6-.1 2.4-.3 2.5-.5 4.8-1.7 6.5-3.6zm-4.3-7c-.5 0-.8-.1-.8-.1.1-.1.3-.1.4-.1.2-.1.4-.1.6-.1h1.1c.2 0 .4 0 .7.1-.6.1-1.3.2-2 .2zm6.7 6.1c-.3.4-.6.8-.7 1.1-.2.3-.3.5-.4.8-.1.2-.2.4-.2.7v.8c0 .4.3.8.6 1 .4.3.9.4 1.4.4 1.6-.1 3.1-.7 4.4-1.6.7-.5 1.4-1 2-1.5l.2-.1c-.3.3-.4.7-.4 1.1 0 .3.1.6.2.9.4.9 1.4 1.4 2.3 1.2 1.8 0 3.9-1.1 6.3-3.3-.2.5-.3 1.1-.3 1.7 0 .5.2.9.6 1.2.4.3.9.4 1.4.4 1.6 0 3.6-1 6-3.1l1.3-1.1c-.4 1.2-.1 2.5.8 3.4.3.3.7.5 1.1.7.6.2 1.3.3 1.9.2.9 0 1.8-.2 2.6-.5.9-.3 1.8-.7 2.6-1.1.8-.4 1.5-1 2.2-1.5.7-.5 1.2-1.1 1.7-1.5s.9-.9 1.2-1.3c.2-.3.4-.5.7-.7.1-.1.1-.2 0-.3l-.4-.3c-.1-.1-.2-.1-.3 0-.2.2-.5.4-.7.7-.3.4-.7.8-1.2 1.2-.5.5-1 1-1.6 1.5-.6.5-1.3 1-2 1.4-.8.4-1.6.8-2.4 1.1-1.6.5-3.2.6-3.9 0-.4-.3-.6-.7-.5-1.2.1-.9.5-1.7 1-2.4 1.5-.4 3-1 4.5-1.6 3.4-1.5 5-2.8 4.9-4.1-.1-.9-.8-1.3-2.3-1.3-1.5 0-3 .5-4.3 1.2-1 .5-1.9 1.2-2.7 1.9-.9.7-1.7 1.6-2.3 2.7l-1 1c-.5.5-1 1-1.6 1.5-.6.5-1.2 1-1.8 1.4-.6.4-1.2.8-1.9 1.1-.5.3-1.1.4-1.7.4-.7 0-.7-.2-.7-.4.1-.4.3-.7.6-1l6.5-7.3 1.8-1.9c.1-.1 0-.3-.1-.4h-.1c-.9.1-1.8.1-2.7 0-.1 0-.1 0-.2.1l-4.1 4.6c-1.8 2.1-3.9 4-6.3 5.5-.8.5-1.6.8-2.5.8-.7 0-.7-.2-.7-.4 0-.7.6-1.8 1.8-3.1l3.7-4c.6-.6 1.6-1.7 3-3.1.1-.1.1-.2 0-.3-.1-.1-.1-.1-.2-.1h-1.6c-.4 0-.7 0-1.1-.1-.1 0-.1 0-.2.1-.6.6-1.1 1.1-1.6 1.7L47.6 23l-1.3 1.2c-.5.5-1.1 1-1.7 1.5-.6.5-1.2 1-1.9 1.4-.6.4-1.3.8-1.9 1.1-.6.3-1.2.4-1.8.4-.7 0-.7-.2-.7-.3 0-.2.1-.4.2-.6.1-.2.2-.4.4-.7s.5-.7.9-1.3S46.4 17.4 58 2.6c.1-.1.1-.2 0-.3 0-.1-.1-.1-.2-.1-.8.1-1.7.1-2.5 0-.1 0-.2 0-.2.1L40.9 20.9l-2.8 3.8zM68.7 21c1.6-1.7 3-2.6 4.1-2.6.5 0 .7.2.7.7 0 .4-.2.7-.5 1-1 1.1-3.1 2.1-6.3 3.2.5-.6 1.1-1.4 2-2.3zM200 14.8c.3 0 .6 0 .8-.1.2-.1.5-.2.7-.4.2-.2.4-.4.5-.6.1-.2.2-.5.2-.8 0-.3-.1-.6-.4-.8-.3-.3-.7-.4-1.1-.4-.5 0-1 .2-1.3.6-.2.2-.3.4-.5.6-.1.2-.2.5-.2.8 0 .3.1.6.4.8.2.1.6.3.9.3z"/><path class="st0" d="M219.8 22.5l-.4-.3c-.1-.1-.2-.1-.3 0-.1.1-.3.4-.6.7s-.7.8-1.1 1.2l-1.5 1.5c-.6.5-1.2 1-1.8 1.4-.6.4-1.2.8-1.9 1.1-.6.3-1.3.4-2 .4-.8 0-.9-.1-.9-.1v-.2c.4-.5.8-.9 1.2-1.3 1.5-1.4 2.9-3 4.2-4.7.3-.5.6-1 .9-1.6.2-.4.3-.9.3-1.3 0-.5-.2-.9-.5-1.2-.2-.2-.5-.3-.8-.4-.9-.2-1.8-.2-2.6.1-1 .4-2 1-2.8 1.7-1.7 1.4-3.4 2.9-5 4.5l2.5-3.2c.3-.3.5-.7.7-1.1.3-.5.3-1.1 0-1.6-.4-.4-1-.6-1.5-.6-.9 0-1.9.6-3.2 1.9-.5.5-1 1-1.4 1.5-.3.5-.7.9-1.2 1.3l-.6.6c-.3.3-.7.8-1.2 1.2l-1.6 1.5c-.6.5-1.2 1-1.9 1.5-.6.4-1.2.8-1.9 1.1-.6.3-1.3.4-1.9.4-.3 0-.9 0-.9-.3.1-.5.3-.9.6-1.3.2-.3.6-.8 1.1-1.4s2.8-3.1 6.8-7.5c.1-.1.1-.2 0-.3 0-.1-.1-.1-.2-.1h-2.6c-.1 0-.2 0-.2.1l-2.8 3.1c-.8.9-1.5 1.7-2 2.3l-.3.4-1 1c-.4.4-1 1-1.6 1.4-.5.5-1.1.9-1.7 1.3-.6.4-1.1.7-1.8 1-.5.2-1 .3-1.5.4-.5 0-.5-.2-.5-.3 0-.4.4-1.3 2.1-3.1l6.2-6.8c.1-.1 0-.3-.1-.4h-.1c-.5 0-1 .1-1.5 0-.3 0-.6 0-.9-.1-.1 0-.2 0-.2.1l-1.2 1.3v-.2c0-.5-.3-.9-.8-1.1-.2-.1-.5-.2-.8-.3-1-.2-2-.1-3 .1-2.7.7-5 2.2-6.8 4.3-.8.8-1.4 1.7-1.8 2.7-.4.4-.9.9-1.5 1.3-.5.5-1.1.9-1.7 1.3-.6.4-1.1.7-1.7.9-.5.2-1.1.3-1.7.3-.4 0-.6-.1-.6-.3 0-.2.1-.5.3-.7.7-1.1 1.4-2.1 2.2-3.1l7.5-9.4h5.1c.6 0 .7-.3.7-.5s-.1-.5-.8-.5h-4.2l3.2-4c.1-.1.1-.2 0-.3 0-.1-.1-.1-.2-.1-.8.1-1.7.1-2.5 0-.1 0-.2 0-.2.1l-3.3 4.3h-1.6c-.2 0-.9 0-.9.5 0 .2.1.5.8.5h1l-4.4 5.7-1.1 1.4c-.1.1-.3.3-.6.7s-.7.8-1.1 1.2l-1.5 1.5c-.6.5-1.2 1-1.8 1.4-.6.4-1.2.8-1.9 1.1-.6.3-1.3.4-2 .4-.8 0-.9-.1-.9-.1v-.2c.4-.5.8-.9 1.2-1.3 1.5-1.4 2.9-3 4.2-4.7.3-.5.6-1 .9-1.6.2-.4.3-.9.3-1.3 0-.5-.2-.9-.6-1.2-.2-.2-.5-.3-.8-.4-.9-.2-1.8-.2-2.6.1-1 .4-2 1-2.9 1.7-1.7 1.4-3.4 3-5 4.6l2.5-3.2c.3-.3.5-.7.7-1.1.3-.5.3-1.1 0-1.6-.4-.4-1-.6-1.5-.6-.9 0-1.9.6-3.2 1.9-.5.5-1 1-1.4 1.6-.3.5-.7.9-1.2 1.3l-1.9 1.9c-.5.5-1.1 1-1.6 1.5-.6.5-1.2 1-1.8 1.4-.6.4-1.2.8-1.9 1.1-.5.3-1.1.4-1.7.4-.6 0-.6-.2-.6-.4.1-.4.3-.7.6-1l6.5-7.2 1.8-2c.1-.1.1-.2 0-.3 0 0-.1-.1-.2-.1-.9.1-1.8.1-2.7 0-.1 0-.1 0-.2.1l-4.2 4.6c-1.8 2.1-3.9 4-6.3 5.5-.8.5-1.6.8-2.5.8-.6 0-.6-.2-.6-.4 0-.7.6-1.8 1.8-3.1l3.7-4c.6-.6 1.6-1.7 3-3.1.1-.1.1-.2 0-.3-.1-.1-.2-.1-.2-.1h-1.6c-.4 0-.7 0-1.1-.1-.1 0-.1 0-.2.1-.6.6-1.1 1.1-1.6 1.7l-3.3 3.6-.3.3c-.3.3-.6.5-.9.8-.3.3-.7.5-1 .8-.3.2-.7.4-1 .6-.3.1-.7.2-1 .2-.3 0-.4-.1-.4-.2.8-.9 1.4-1.8 1.8-2.9.2-.5.4-1 .5-1.5.1-.6.2-1.1.1-1.7 0-.6-.3-1.2-.9-1.5-.5-.3-1.2-.5-1.8-.5-1.7.1-3.3.6-4.7 1.6-.7.4-1.4.9-2 1.5-.6.6-1.2 1.2-1.7 1.8-.5.7-.9 1.4-1.2 2.1-.3.7-.5 1.5-.5 2.3-.3.3-.6.5-1 .7-1.1.7-2.4 1.1-3.7 1.2-.8 0-.8-.3-.8-.5.1-.4.2-.7.4-1 .2-.4 2.6-3.5 7-9.1l2.9-3.6 2.9-3.4c.9-1.1 1.9-2.1 2.8-3 .7-.7 1.4-1.4 2.2-2 .4-.4.9-.7 1.3-1 .4-.3.6-.4.6-.6 0-.2-.1-.4-.3-.4h-.1c-1.5 0-5 2.4-10.7 7.2l-3.6 3.2-3 2.7-2.6 2.5-2.5 2.5-2.7 2.7-1.6 1.8c1.2-1.9 3.4-5.2 6.5-9.8l4.8-6.8 2-2.6c.5-.7 1.1-1.3 1.7-1.8l.5-.4c.2-.2.3-.3.3-.5 0-.4-.6-.4-.7-.4s-.5 0-3 2c-2.2 1.8-4.9 4.3-8.1 7.4l-5.3 5.1c-1.6 1.5-3.1 2.8-4.4 3.9s-2.5 2-3.6 2.8c-.9.7-1.9 1.3-2.9 1.9-.7.4-1.5.7-2.3 1-.7.2-1.4.3-2.1.3-.6 0-1.2-.1-1.7-.4-.3-.2-.5-.5-.6-.8.2 0 .4.1.6.1.4 0 .7-.1 1-.3.2-.2.4-.5.4-.8 0-.4-.2-1-1.3-1-.5 0-.9.2-1.2.5-.4.3-.6.7-.5 1.2 0 .7.4 1.4 1 1.7.8.5 1.8.7 2.7.6 1.4 0 2.8-.4 4-1 3.7-1.7 8.2-5.3 13.5-10.6l4.3-4.3 2.8-2.7c-1.3 1.5-2.6 3-3.7 4.5-1.1 1.4-2.1 2.7-2.9 4s-1.6 2.5-2.2 3.6c-.5 1-1 2-1.4 3-.3.7-.4 1.4-.5 2.1 0 .3 0 .7.2 1 .1.1.3.2.4.2.3 0 .7-.2 2-1.6 3.6-3.9 7.4-7.6 11.4-11.1l6.6-5.7 2.4-2-1.4 1.3-3 2.9-3 3.1-2.9 3.2c-1.8 1.9-3.3 4.1-4.6 6.4-.2.3-.3.7-.4 1-.1.3-.1.6-.1.9 0 .4.3.8.6 1.1.4.3.9.5 1.5.5.5 0 1 0 1.5-.1 1.4-.2 2.8-.8 4-1.6.1.4.4.7.7 1 .3.2.6.4 1 .5.5.1.9.2 1.4.2.6 0 1.2-.1 1.7-.2 1.8-.6 3.4-1.5 4.6-2.9.3.3.6.4 1 .4.9-.1 1.7-.3 2.4-.8 0 .1-.1.2-.1.3-.2.4-.3.8-.3 1.2 0 .3.1.6.2.9.4.9 1.4 1.4 2.3 1.2 1.8 0 3.9-1.1 6.3-3.3-.2.5-.3 1.1-.3 1.7 0 .5.2.9.6 1.2.4.3.9.4 1.4.4 1.6 0 3.6-1 6-3.1l1.7-1.5c.5-.4.9-.8 1.3-1.3l.7-.7h.1l1.2-1.3c2.4-2.7 3-3 3.2-3h.2v.3c-.3.6-.7 1.2-1.2 1.7l-6.4 8.3c-.1.1 0 .3.1.3s.1.1.2 0c.5-.1 1.1-.2 1.7-.2.4 0 .7 0 1.1.1.1 0 .2 0 .2-.1l1.7-2c1.5-1.7 3.1-3.4 4.8-4.9 2.7-2.5 4.7-3.7 5.9-3.7.6 0 .6.2.6.4-.1.4-.2.8-.5 1.1-.2.3-.5.7-.8 1-.3.4-1 1.1-2.1 2.2-.9.9-1.8 1.9-2.5 3-.2.3-.4.7-.5 1.1-.1.3-.1.5-.1.8 0 .3.1.5.3.7.7.6 1.6.9 2.5.8 1.6-.1 3-.6 4.3-1.5.6-.4 1.1-.8 1.6-1.2-.1.2-.2.4-.2.6v.8c0 .4.2.8.6 1 .5.3 1.1.4 1.6.4 1.8 0 3.9-1 6.2-3.1v.7c-.1 1.2.7 2.3 1.9 2.4h.6c.5 0 .9-.1 1.4-.2 1.5-.5 2.8-1.4 4-2.5-.3.4-.5.9-.5 1.4 0 .6.4 1.3 2.1 1.3s3.6-.9 5.8-2.7c0 .1-.1.2-.1.3-.1.3-.2.5-.2.8 0 .5.4.9.8 1.1.6.3 1.3.4 1.9.4 1.5-.1 3-.7 4.3-1.6.7-.5 1.4-1 2-1.5.6-.5 1.2-1 1.7-1.5l1.3-1.3.7-.7 1.2-1.3c2.4-2.7 3-3 3.2-3h.1v.3c-.3.6-.7 1.2-1.2 1.7l-6.4 8.3c-.1.1-.1.2 0 .3.1.1.2.1.2.1.5-.1 1.1-.2 1.7-.2.4 0 .7 0 1.1.1.1 0 .2 0 .2-.1l1.7-2c1.5-1.7 3.1-3.4 4.8-4.9 2.7-2.5 4.7-3.7 5.9-3.7.6 0 .6.2.6.4-.1.4-.2.8-.5 1.1-.2.3-.5.7-.8 1-.3.4-1 1.1-2.1 2.2-.9.9-1.8 1.9-2.5 3-.2.3-.4.7-.5 1.1-.1.3-.1.5-.1.8 0 .3.1.5.3.7.7.6 1.6.9 2.5.8 1.6-.1 3.1-.6 4.3-1.6.7-.5 1.3-1 1.9-1.5.6-.5 1.1-1 1.6-1.5s.9-.9 1.2-1.3l.6-.7c-.5-.1-.5-.3-.6-.4zm-93.9 2.8c-.7.8-1.6 1.5-2.4 2.1-.9.7-1.9 1.1-2.9 1.2-.2 0-.5 0-.7-.1-.4-.2-.7-.7-.7-1.1-.1-1 .7-2.5 2.3-4.3 2.6-2.9 4.5-4.4 5.9-4.4.5 0 1.1.2 1.2 1.5 0 .9-.3 1.8-.8 2.6l-.6.3c-.9.4-1.4 1.2-1.3 2.2zm49.7 3.2c-.4 0-.6-.2-.6-.6 0-1.1.9-2.7 2.5-4.5.7-.8 1.5-1.5 2.3-2.2 2.1-1.8 3.8-2.7 4.9-2.7.7 0 1.1.3 1.1.9-.1.8-.5 1.5-1 2.1l-1.5 1.7c-3.4 3.5-6 5.3-7.7 5.3zM60 48.3c.4-1.4.7-2.9.6-4.3 0-1.6-.4-3.1-1.3-4.4 1.8-1.5 4-2.5 6.3-2.8.2 0 .4-.1.6-.1.1-.1.2-.2.2-.4 0-.1 0-.4-.5-.4-2.6.2-5.2 1.1-7.5 2.5-2-2.2-5.2-3.4-9.5-3.4-2.6 0-5.2.5-7.7 1.5-1.1.5-2.1 1-3.1 1.7-.9.6-1.7 1.3-2.4 2.1-.6.7-1.2 1.5-1.5 2.4-.4.9-.6 1.8-.5 2.7 0 1.1.6 2 1.5 2.6.5.3 1 .6 1.5.8 1.6.4 3.3.3 4.9-.2 3-.8 5.6-2.5 7.5-5 1.1-1.4 1.8-3.2 1.8-5 0-.5-.3-.6-.4-.6-.3.1-.4.3-.4.6-.3 1.7-1.1 3.2-2.3 4.4-.7.7-1.4 1.4-2.2 2-.8.6-1.6 1.1-2.5 1.6-.8.4-1.6.8-2.5 1.1-.8.3-1.6.4-2.4.4-.7 0-1.5-.2-2.1-.7-.5-.4-.8-1.1-.8-1.8.1-1.6.8-3.1 1.9-4.2 1.4-1.7 3.1-3 5.1-4 2.1-1.1 4.4-1.7 6.8-1.7 3.9 0 6.7 1.1 8.3 3.2-.8.5-1.6 1.1-2.4 1.8-.7.6-1.4 1.2-2 1.8l-1.7 1.7-3.1 3.4-3.1 3.4c-1 1-2.1 2-3.3 3.1-1.1 1-2.3 1.8-3.6 2.5h-.1l-1-.3c-.7-.2-1.4-.3-2.1-.5-.4-.1-.8-.1-1.1-.2s-.9 0-1.6 0c-.8 0-1.6.2-2.3.5-.3.1-.6.3-.8.5-.2.2-.3.4-.3.7 0 .2.1.4.2.6.5.6 1.6.9 3.3.9 2.2 0 4.4-.3 6.5-.9 1.8.5 3.7.8 5.6.8 2.7 0 5.4-.6 7.8-1.9 1.2-.6 2.3-1.3 3.3-2.2 1-.8 1.9-1.8 2.6-2.9.8-1 1.4-2.1 1.8-3.4zm-27.2 9.5c-2.8 0-2.9-.5-2.9-.5s.1-.1.6-.3c.8-.2 1.7-.2 2.5-.2 1.2 0 2.4.2 3.6.5-1.2.3-2.5.5-3.8.5zm24.1-6.5c-.7 1-1.5 1.9-2.3 2.7-.9.8-1.9 1.5-2.9 2-1.1.6-2.2 1-3.3 1.3-2.5.6-5.1.6-7.6 0 3.7-1.5 7.3-4.4 10.7-8.6l3.4-4.3c1.1-1.4 2.3-2.7 3.6-3.9.5 1.3.8 2.6.8 4-.3 2.4-1 4.8-2.4 6.8zM134 31.5c-.8.1-1.7.1-2.5 0-.1 0-.2 0-.2.1l-14.2 18.5-1 1.4-.9.9-1.3 1.3c-.5.5-1 1-1.6 1.4-.5.5-1.1.9-1.7 1.3-.6.4-1.1.7-1.8 1-.5.2-1 .3-1.5.4-.5 0-.5-.2-.5-.3 0-.4.4-1.3 2.1-3.2l6.2-6.8c.1-.1.1-.2 0-.3 0-.1-.1-.1-.2-.1-.5.1-1 .1-1.5.1-.3 0-.6 0-.9-.1-.1 0-.2 0-.2.1l-1.2 1.3v-.2c0-.5-.3-.9-.8-1.2-.2-.1-.5-.2-.8-.3-1-.2-2-.1-3 .1-2.7.7-5.1 2.2-6.8 4.3l-.2.3-1 1-1.3 1.3c-.5.5-1 .9-1.5 1.4-.5.5-1.1.9-1.7 1.3-.6.4-1.1.7-1.7.9-.5.2-1.1.3-1.7.3-.7 0-.7-.2-.7-.3 0-.2.1-.5.3-.7.7-1.1 1.4-2.1 2.2-3.1l7.6-9.3h5.1c.6 0 .7-.3.7-.5s-.1-.5-.8-.5h-4.2l3.2-4c.1-.1.1-.2 0-.3 0-.1-.1-.1-.2-.1-.8.1-1.7.1-2.5 0-.1 0-.2 0-.2.1l-3.3 4.3h-1.6c-.2 0-.9 0-.9.5 0 .2.1.5.8.5h1L92.7 50l-1.1 1.4c-.1.1-.3.3-.6.7s-.7.8-1.1 1.2l-1.5 1.5c-.6.5-1.2 1-1.8 1.4-.6.4-1.2.8-1.9 1.1-.6.3-1.3.4-2 .4-.8 0-.9-.2-.9-.2v-.2c.4-.5.8-.9 1.3-1.2 1.5-1.4 2.9-3 4.2-4.7.3-.5.6-1 .9-1.6.2-.4.3-.9.3-1.3 0-.5-.2-.9-.5-1.2-.2-.2-.5-.3-.8-.4-.9-.2-1.8-.2-2.6.1-1 .4-2 1-2.8 1.7-1.7 1.4-3.4 3-5 4.6L79 50c.3-.3.5-.7.7-1.1.3-.5.3-1.1 0-1.6-.4-.4-1-.6-1.5-.6-.9 0-1.9.6-3.2 1.9-.5.5-1 1-1.4 1.5-.3.5-.7.9-1.2 1.3-.2.2-.4.4-.6.7-.3.3-.7.8-1.2 1.2-.5.5-1.1 1-1.6 1.5-.6.5-1.3 1-2 1.4-.8.4-1.6.8-2.4 1.1-1.6.5-3.2.6-3.9 0-.4-.3-.5-.8-.5-1.3.1-.9.5-1.7 1-2.4 1.5-.4 3-1 4.5-1.6 3.4-1.5 5-2.8 4.9-4.1-.1-.9-.8-1.3-2.3-1.3-1.5 0-3 .5-4.3 1.2-1 .5-1.9 1.2-2.7 1.8-1 .8-1.8 1.7-2.4 2.8-1.2 2.3-1.2 4.1 0 5.3.3.3.7.5 1.1.7.6.2 1.3.3 1.9.2.9 0 1.8-.2 2.6-.5.9-.3 1.7-.7 2.6-1.1.8-.4 1.5-.9 2.2-1.5.6-.5 1.2-1.1 1.7-1.5.4-.4.8-.9 1.2-1.3.2-.3.4-.5.7-.7l1.2-1.3c2.4-2.7 3-3 3.2-3h.1v.3c-.3.6-.7 1.2-1.2 1.7L70 58c-.1.1-.1.2 0 .3.1.1.1.1.2 0 .5-.1 1.1-.2 1.7-.2.4 0 .7 0 1.1.1.1 0 .2 0 .2-.1l1.7-2c1.5-1.7 3.1-3.4 4.8-4.9 2.7-2.5 4.7-3.7 5.8-3.7.7 0 .7.2.7.4-.1.4-.2.8-.5 1.1-.2.3-.5.7-.8 1-.3.4-1 1.1-2.1 2.2-.9.9-1.8 1.9-2.5 3-.2.3-.4.7-.5 1.1-.1.3-.1.5-.1.8 0 .3.1.5.3.7.7.6 1.6.9 2.5.8 1.6-.1 3.1-.6 4.3-1.6.6-.4 1.1-.8 1.6-1.2-.1.2-.2.4-.2.7v.8c0 .4.2.8.6 1 .5.3 1.1.5 1.7.4 2 0 4.4-1.3 7.2-4-.1.5-.2 1-.2 1.5-.2 1.2.7 2.3 1.9 2.5h.7c.5 0 .9-.1 1.4-.2 1.5-.5 2.8-1.4 4-2.5-.3.4-.5.9-.5 1.4 0 .6.4 1.3 2.1 1.3s3.9-1.1 6.3-3.2l-.1.3c-.1.2-.2.4-.2.7v.8c0 .4.3.8.6 1 .4.3.9.4 1.4.4 1.6-.1 3.1-.7 4.4-1.6.7-.5 1.4-1 2-1.5l1.8-1.5c.6-.5 1-.9 1.3-1.3s.6-.6.7-.7c.1-.1.1-.2 0-.3l-.4-.3c-.1-.1-.2-.1-.3 0-.1.1-.4.3-.7.7l-1.3 1.2c-.5.5-1.1 1-1.7 1.5-.6.5-1.2 1-1.9 1.4-.6.4-1.3.8-2 1.1-.6.3-1.2.4-1.8.4-.6 0-.6-.2-.6-.3 0-.2.1-.4.2-.6.1-.2.2-.4.4-.7s.5-.7.9-1.3 6.5-8.3 18.1-23.1c.1-.1.1-.2 0-.3h-.2zM64.2 50.2c1.6-1.7 3-2.6 4.1-2.6.5 0 .7.2.7.7 0 .4-.2.7-.5 1-1 1.1-3.1 2.2-6.3 3.2.5-.6 1.2-1.4 2-2.3zm35.8 7.5c-.4 0-.6-.2-.6-.6 0-1.2.9-2.7 2.5-4.5.7-.8 1.5-1.5 2.3-2.2 2.1-1.8 3.8-2.7 4.9-2.7.7 0 1.1.3 1.1.9-.1.8-.5 1.5-1 2.1l-1.5 1.7c-3.4 3.5-5.9 5.3-7.7 5.3zm58.5-9.3c0-.7-.3-1.4-.9-1.8-.7-.5-1.6-.7-2.4-.7-1 0-1.9.1-2.9.5-1.9.6-3.6 1.8-4.9 3.2-2.1 2.2-3.4 5-3.5 8.1-1.4-.2-2.3-1.4-2.2-2.8 0-2.1 1.9-5 5.6-8.8 2.9-.2 5.7-.8 8.4-1.8 2.6-.9 5.1-2.2 7.4-3.8 2.2-1.6 3.2-3 3.2-4.3 0-.7-.3-1.5-1.9-1.5-3.7.2-7.3 1.2-10.5 3.1-3.5 1.9-6.7 4.3-9.3 7.3-.9-.2-1.8-.6-2.5-1.2-.3-.3-.5-.5-.7-.9-.2-.4-.2-.8-.2-1.2 0-.6.2-1.2.5-1.7.8-1.4 2-2.6 3.4-3.4 2.3-1.5 4.9-2.3 7.6-2.3l1.4.1c.4 0 .5-.3.5-.4 0-.4-.5-.5-1.7-.5-2.2 0-4.3.4-6.4 1.2-.9.4-1.8.8-2.6 1.3-.7.5-1.4 1-2.1 1.6-.5.5-1 1.1-1.4 1.8-.3.5-.5 1.2-.5 1.8 0 .5.1 1.1.3 1.6.6 1.6 2.1 2.7 3.7 3-2.5 3-3.7 5.8-3.7 8.4 0 .6.1 1.2.3 1.7.6 1.5 2 2.5 3.6 2.6 0 .5.1 1.1.2 1.6.4 2 .9 2.8 1.5 2.8.4 0 .4-.3.4-.3v-.1c0-.1-.1-.2-.1-.3-.7-1.1-1-2.4-1-3.7h.1c2.4 0 4.7-.6 6.8-1.7 1-.5 1.9-1.1 2.7-1.8.8-.6 1.5-1.4 2.1-2.2.5-.7 1-1.5 1.3-2.3.2-.6.4-1.4.4-2.2zm-1.8-9.8c3.2-2 5.8-3.1 7.5-3.1 1.2 0 1.2.5 1.2.7-.1.6-.4 1.1-.8 1.4-1.6 1.5-3.5 2.8-5.5 3.8-3.3 1.8-7 3.1-10.7 3.7 2.5-2.4 5.3-4.6 8.3-6.5zm-2.1 13.2c-1.2 1.6-2.7 3-4.3 4.1-1.4 1.1-3.2 1.8-5 1.9h-.3c0-1.9.6-3.8 1.6-5.5.5-.8 1.1-1.6 1.8-2.3.6-.7 1.4-1.2 2.1-1.8.7-.5 1.5-.8 2.2-1.1.6-.2 1.3-.4 2-.4.4 0 .9 0 1.2.3.2.2.3.5.3.8 0 1.5-.7 2.9-1.6 4zm46.3-.3c-.1-.1-.2-.1-.3 0-.2.2-.5.4-.6.7-.3.3-.7.8-1.1 1.2-.5.5-1 1-1.6 1.5-.6.5-1.3 1-2 1.4-.8.4-1.6.8-2.4 1.1-1.6.5-3.2.6-3.9 0-.4-.3-.5-.8-.5-1.3.1-.9.5-1.7 1-2.4 1.5-.4 3-1 4.5-1.6 3.4-1.5 5-2.8 4.9-4.1-.1-.9-.8-1.3-2.3-1.3-1.5 0-3 .5-4.3 1.2-1 .5-1.9 1.2-2.7 1.8-.9.7-1.7 1.6-2.3 2.7l-1 1-1.6 1.5c-.6.5-1.2.9-1.8 1.4-.6.4-1.1.7-1.8 1-.5.2-1 .4-1.5.4-.3 0-.5-.1-.5-.5.1-.8.5-1.5 1-2.1.3-.5.7-.9 1.1-1.3.4-.5.8-.9 1.3-1.4s.9-.9 1.4-1.3c.4-.4.8-.7 1.3-1 .6-.4.7-.6.7-.8s-.1-.5-.7-.5c-.7 0-1.3-.1-2-.2l-2-.4-1.2-.3c0-.3.1-.6.3-.8l.3-.5c.1-.2.2-.5.2-.8 0-.5-.2-1-1.4-1-.5 0-1 .3-1.3.8-.2.2-.3.5-.4.8-.1.3-.1.6 0 .9.1.4.3.7.7.8-.7 1.2-1.5 2.2-2.4 3.2l-.2.2-.9.9-1.3 1.3c-.5.5-1 1-1.6 1.4-.5.5-1.1.9-1.7 1.3-.6.4-1.1.7-1.8 1-.5.2-1 .3-1.5.4-.5 0-.5-.2-.5-.3 0-.4.4-1.3 2.1-3.2l6.2-6.8c.1-.1.1-.2 0-.3 0-.1-.1-.1-.2-.1-.5.1-1 .1-1.5.1-.3 0-.6 0-.9-.1-.1 0-.2 0-.2.1l-1.2 1.3v-.2c0-.5-.3-1-.8-1.2-.2-.1-.5-.2-.8-.3-1-.2-2-.1-3 .1-2.7.7-5.1 2.2-6.9 4.3-1.4 1.3-2.3 3.1-2.4 5.1-.1 1.2.7 2.3 1.9 2.4h.6c.5 0 .9-.1 1.4-.2 1.5-.5 2.8-1.4 4-2.5-.3.4-.5.9-.5 1.4 0 .6.4 1.3 2.1 1.3 2.4 0 5.4-1.9 8.9-5.7l.3-.3c1.4-1.3 2.5-2.7 3.4-4.3 1.5.5 3.1.8 4.6 1-5.1 3.2-7.6 5.5-7.6 7.2 0 .6.3 1.1.7 1.5.5.4 1.2.5 1.8.5 2.2 0 4.7-1.4 7.7-4.2-.4 1.2-.1 2.5.8 3.3.3.3.7.5 1.1.7.6.2 1.3.3 1.9.2.9 0 1.8-.2 2.6-.5.9-.3 1.7-.7 2.6-1.1.8-.4 1.5-.9 2.2-1.5.6-.5 1.2-1.1 1.7-1.5.4-.4.8-.9 1.2-1.3.2-.3.4-.5.7-.7.1-.1.1-.2 0-.3l-.1-.2zm-8.5-1.3c1.6-1.7 3-2.6 4.1-2.6.5 0 .7.2.7.7 0 .4-.2.7-.5 1-1 1.1-3.1 2.2-6.3 3.2.4-.6 1.1-1.4 2-2.3zm-32.8 7.6c-.4 0-.6-.2-.6-.6 0-1.2.9-2.7 2.5-4.5.7-.8 1.5-1.5 2.3-2.2 2.1-1.8 3.8-2.7 4.9-2.7.7 0 1.1.3 1.1.9-.1.8-.5 1.5-1 2.1l-1.5 1.7c-3.4 3.4-5.9 5.2-7.7 5.3zM56.9 77c-.6 0-1.2-.1-1.8-.4-.5-.2-1-.5-1.3-.9-.3-.4-.6-.8-.7-1.3-.4-1-.5-2-.5-3s.2-2 .5-2.9c.2-.5.5-.9.8-1.3.4-.4.8-.7 1.3-.9.6-.3 1.3-.4 2-.4 1.3 0 2.6.3 3.8.8l-.4.9c-1-.5-2.2-.8-3.3-.8-.6 0-1.2.1-1.7.4-.4.3-.8.7-1 1.2-.4.9-.6 1.9-.6 2.9-.1 1.3.2 2.6.9 3.7.3.4.6.6 1 .8 1.1.5 2.4.4 3.4-.3.6-.5.8-1.2.8-2v-1.3l-2.1-.1v-.9h2.8c.4 0 .6.1.6.4v1.8c.1 1.1-.4 2.1-1.2 2.8-1.2.6-2.3.9-3.3.8zm13.5-4.2H64c0 1 .3 1.9 1 2.6.5.5 1.3.8 2 .7.9 0 1.8-.3 2.7-.7l.4.9c-.9.4-1.9.7-2.9.7-.7 0-1.5-.1-2.2-.4-.5-.2-1-.6-1.3-1-.6-.9-.9-1.9-.9-2.9 0-1.1.3-2.2.9-3.2.3-.4.7-.8 1.2-1 .6-.3 1.2-.4 1.8-.4 1-.1 2 .3 2.7 1.1.7.8 1 1.8 1 2.9v.7zm-1.9-3c-.4-.6-1.1-.9-1.9-.8-.7 0-1.4.3-1.8.8-.4.6-.7 1.4-.7 2.2h5.1c0-.8-.2-1.5-.7-2.2zm3.9 2.7c-.1-1.2.3-2.3 1-3.2.8-.8 1.8-1.2 2.9-1.1 1.1-.1 2.2.4 3 1.2.8.9 1.2 2.1 1.1 3.3.1 1.2-.3 2.3-1 3.2-.8.8-1.8 1.2-2.9 1.1-1.1.1-2.2-.4-3-1.2-.8-.9-1.2-2.1-1.1-3.3zm6.8.2c.1-.9-.2-1.9-.8-2.6-.5-.6-1.3-1-2.1-1s-1.5.3-2 .9c-.5.8-.8 1.7-.7 2.6-.1.9.2 1.9.8 2.6.5.6 1.2 1 2.1 1 .8 0 1.5-.3 2-.9.5-.8.7-1.7.7-2.6zm7.3 4.1h-4V76l1.1-.1v-6.8h-1.1v-.8h1.1c0-.9.3-1.7.8-2.3.6-.6 1.5-.9 2.3-.8.6 0 1.2.1 1.8.4l-.3.9c-.5-.3-1-.4-1.5-.4-1.2 0-1.8.8-1.9 2.2h1.9v.8h-1.9V76l1.6.1.1.7zm5.8 0h-4V76l1.1-.1v-6.8h-1.1v-.8h1.1c0-.9.3-1.7.8-2.3.6-.6 1.5-.9 2.3-.8.6 0 1.2.1 1.8.4l-.3.9c-.5-.3-1-.4-1.5-.4-1.2 0-1.8.8-1.9 2.2h1.9v.8h-1.9V76l1.6.1.1.7zm12.9-9.4c-.9-.4-1.8-.7-2.8-.7-.6 0-1.3.1-1.8.5-.4.3-.6.8-.6 1.3s.2 1 .6 1.4c.4.4.9.7 1.5.9.6.2 1.2.5 1.7.7.6.2 1.1.6 1.5 1.1.4.5.6 1.1.6 1.7 0 .8-.3 1.6-1 2.1-.8.5-1.7.8-2.6.8-.9 0-1.9-.2-2.6-.8-.7-.6-1.2-1.4-1.4-2.3l1.1-.2c.4 1.6 1.3 2.4 2.7 2.3.6 0 1.3-.1 1.8-.5.4-.4.7-.9.6-1.4 0-.7-.5-1.4-1.2-1.7-.4-.2-.8-.4-1.1-.5-.4-.2-.8-.3-1.3-.5l-1.2-.6c-.8-.5-1.2-1.4-1.2-2.3 0-.8.4-1.5 1-2 .8-.5 1.7-.8 2.6-.7 1.1 0 2.3.3 3.3.7l-.2.7zm2 1.8v-.8h1.4v-1.9l1.3-.3v2.2h1.8v.8h-1.8v6.1c0 .5.2.8.7.8.3 0 .6-.1.9-.2l.1.9c-.5.2-1 .3-1.5.3-.4 0-.8-.1-1.1-.4-.3-.4-.4-.8-.4-1.3v-6.1h-1.4zm14.2-.4v6.4c0 .5.2.8.7.8.2 0 .4 0 .7-.1l.2.9c-.4.1-.8.2-1.2.2-.7.1-1.4-.4-1.5-1.1-.9.7-2 1.1-3.2 1.1-.8.1-1.6-.2-2.2-.6-.5-.6-.7-1.3-.6-2v-5.1l-1.2-.1v-.8h1.9c.4 0 .6.2.6.5v5.6c0 .5.1 1 .4 1.3.3.3.8.5 1.3.4 1.1 0 2.3-.4 3.1-1.2v-5.8l-1-.1v-.8h1.8c.1.1.2.2.2.5zm8.8 6.6v-.2c-.7 1.2-1.9 1.9-3.3 1.8-.6 0-1.3-.2-1.7-.6-.4-.4-.7-1-.6-1.7 0-.9.5-1.8 1.3-2.2 1.4-.6 2.9-.8 4.4-.7v-.6c.1-.6-.1-1.3-.5-1.8-.5-.4-1-.5-1.6-.5-.9 0-1.7.3-2.5.7l-.4-.9c1-.4 2.1-.7 3.2-.7 1.6 0 2.5.5 2.9 1.5.2.5.3 1 .2 1.5v4.1c0 .5.2.8.7.8.2 0 .4 0 .7-.1l.1.9c-.4.1-.8.2-1.2.2-1.2.1-1.7-.4-1.7-1.5zm0-2.7c-3 0-4.5.7-4.5 2 0 .4.1.8.4 1.1.3.3.7.4 1.2.4.8 0 1.5-.3 2-.9.6-.7.9-1.5.9-2.4v-.2zm6.9 0V76l1.6.1v.8h-4v-.8l1.1-.1v-6.8l-1.1-.1v-.8h1.7c.3 0 .5.2.5.5v1.8c.3-.7.7-1.3 1.3-1.7.6-.5 1.4-.8 2.1-.8v1c-.9 0-1.7.4-2.3 1-.6.7-1 1.6-.9 2.6zm3.9-3.5v-.8h1.4v-1.9l1.3-.3v2.2h1.8v.8h-1.8v6.1c0 .5.2.8.7.8.3 0 .6-.1.9-.2l.1.9c-.5.2-1 .3-1.5.3-.4 0-.8-.1-1.1-.4-.3-.4-.4-.8-.4-1.3v-6.1H141zm7.1 6.5c.2.1.3.3.4.6v.1c0 .3-.1.6-.3.9l-.1.2c-.2.2-.3.4-.5.6l-.1.1-.1.1-.3.2-.3-.3.2-.1c.1-.2.2-.3.3-.5.1-.1.1-.3.1-.4V77c0-.1 0-.1-.1-.2v-.5c0-.2.1-.3.2-.4l.1-.1.5-.1zm6.2-7.6h3.6c1.1-.1 2.2.3 3 1.1 1.4 2 1.4 4.6 0 6.5-.8.8-1.9 1.2-3 1.1h-3.6v-.6l.8-.1v-7.3l-.8-.1v-.6zm1.8.6v7.4h1.8c.8 0 1.7-.3 2.2-1 1-1.7 1-3.8 0-5.5-.5-.7-1.3-1-2.2-1l-1.8.1zm7.5-.6h3.6c1.1-.1 2.2.3 3 1.1 1.4 2 1.4 4.6 0 6.5-.8.8-1.9 1.2-3 1.1h-3.6v-.6l.8-.1v-7.3l-.8-.1v-.6zm1.9.6v7.4h1.8c.8 0 1.7-.3 2.2-1 1-1.7 1-3.8 0-5.5-.5-.7-1.3-1-2.2-1l-1.8.1zm12.6.5c-.7-.3-1.5-.5-2.2-.6-.5 0-1 .1-1.5.4-.3.2-.5.6-.5 1.1 0 .4.2.8.5 1.1.4.3.8.5 1.2.7.5.2.9.4 1.4.6.5.2.9.5 1.2.9.8.9.6 2.3-.3 3l-.1.1c-.6.4-1.4.7-2.1.6-.8 0-1.5-.2-2.1-.6-.6-.5-.9-1.1-1.1-1.8l.9-.2c.2 1.1 1.1 1.9 2.2 1.9.5 0 1-.1 1.5-.4.4-.3.5-.7.5-1.2 0-.6-.4-1.1-1-1.3-.3-.2-.6-.3-.9-.4-.3-.1-.7-.3-1-.4-.3-.1-.6-.3-.9-.5-.3-.2-.5-.5-.7-.8-.2-.3-.3-.7-.3-1.1 0-.6.3-1.3.8-1.6.6-.4 1.3-.6 2.1-.6.9 0 1.8.2 2.7.6l-.3.5z"/></svg>