<svg id="Layer_1" data-name="Layer 1" xmlns="http://www.w3.org/2000/svg" width="300" height="80" viewBox="0 0 300 80"><defs><style>.cls-1{fill:#0019a4}</style></defs><title>Artboard 1</title><path class="cls-1" d="M63.65 25.63a5.7 5.7 0 0 0 1.58-3.76 4.41 4.41 0 0 0-1.23-3.3 14.31 14.31 0 0 0 4.79-3A6.43 6.43 0 0 0 71 11.06a5 5 0 0 0-1.51-3.66 14.18 14.18 0 0 1 3.07-1 8.47 8.47 0 0 1 .94-.17c.22 0 .5 0 .5-.32s-.59-.4-.84-.4a12.08 12.08 0 0 0-4.57 1.18 13.16 13.16 0 0 0-7.41-1.85 23.19 23.19 0 0 0-9.09 1.85 23.79 23.79 0 0 0-3.77 2 18 18 0 0 0-3 2.47 11.6 11.6 0 0 0-2 2.76 5.72 5.72 0 0 0-.74 2.5 3.12 3.12 0 0 0 .28 1.58 3 3 0 0 0 2.83 1.43 12.88 12.88 0 0 0 5.89-1.5 13.25 13.25 0 0 0 4.8-4 10.07 10.07 0 0 0 2-5.94c0-.54-.28-.6-.41-.6-.36 0-.47.51-.51.73A10.83 10.83 0 0 1 55 13.31a15.12 15.12 0 0 1-2.1 2.14 16.33 16.33 0 0 1-2.38 1.66 12.57 12.57 0 0 1-2.42 1.07 5.57 5.57 0 0 1-3.11.27 1.56 1.56 0 0 1-1.37-1.6 6.07 6.07 0 0 1 1.71-3.54 22.42 22.42 0 0 1 4.36-3.87 19.44 19.44 0 0 1 11.05-3.77c3 0 5.18.55 6.56 1.65a46.13 46.13 0 0 0-12 9.37l-4.53 4.53-3.39 3.25c-1 .87-1.82 1.59-2.53 2.14A13.75 13.75 0 0 1 43 27.85a6.28 6.28 0 0 1-1.53.59 8.87 8.87 0 0 1-1.83.15 3.78 3.78 0 0 1-1.93-.49 1.41 1.41 0 0 1-.75-.89 2.4 2.4 0 0 0 .52 0 1.52 1.52 0 0 0 1-.29 1 1 0 0 0 .39-.8.82.82 0 0 0-.42-.75 1.77 1.77 0 0 0-1.45-.09 1.53 1.53 0 0 0-1.31 1.57A2.24 2.24 0 0 0 37 28.76a5.44 5.44 0 0 0 2.88.74 12.45 12.45 0 0 0 4.12-.59 24.3 24.3 0 0 0 6.24-3.68 40.79 40.79 0 0 0 6.41-6.42 75.12 75.12 0 0 1 5.91-6.53 30.8 30.8 0 0 1 4-3.23l.88-.57q.33-.21.66-.39a3 3 0 0 1 .6 1.9 6.11 6.11 0 0 1-.53 2.46 10.27 10.27 0 0 1-5.48 5.26 4.79 4.79 0 0 0-1.91-.43 9.37 9.37 0 0 0-1.5.1 6 6 0 0 0-1 .25 2.66 2.66 0 0 0-.73.38.77.77 0 0 0-.34.61c0 .25.18.47.55.69a4 4 0 0 0 1.84.28 11 11 0 0 0 3.07-.59 2.88 2.88 0 0 1 .16 1.09 6.7 6.7 0 0 1-.36 2 9.49 9.49 0 0 1-4.16 5.21 6.88 6.88 0 0 1-3.59 1.17c-2.28 0-2.28-.86-2.28-1.14a3.49 3.49 0 0 1 1.34-2.32 10.25 10.25 0 0 1 1.47-1.16A12.69 12.69 0 0 1 57 23a11.58 11.58 0 0 1 2-.67 7.38 7.38 0 0 1 1.69-.33c.3 0 1 0 1-.45 0-.14-.06-.45-.62-.45a11.2 11.2 0 0 0-4.61 1.08 13.27 13.27 0 0 0-2 1.11 11 11 0 0 0-1.62 1.32 6.69 6.69 0 0 0-1.1 1.39 3 3 0 0 0-.42 1.46 1.64 1.64 0 0 0 .73 1.33 3.13 3.13 0 0 0 1 .48 6.46 6.46 0 0 0 1.76.19 11.37 11.37 0 0 0 2.44-.29 11.55 11.55 0 0 0 6.4-3.54zm-4.25-7c-.55 0-.75-.08-.81-.14a1.69 1.69 0 0 1 .42-.15 4.56 4.56 0 0 1 .64-.13 9.22 9.22 0 0 1 1.11 0 3 3 0 0 1 .65.07 6.61 6.61 0 0 1-2 .32zm6.7 6.04c-.31.44-.56.82-.74 1.13a7.22 7.22 0 0 0-.44.83 3 3 0 0 0-.21.67 4.66 4.66 0 0 0 0 .75 1.29 1.29 0 0 0 .6 1 2.27 2.27 0 0 0 1.42.43 8.61 8.61 0 0 0 4.41-1.58 20.15 20.15 0 0 0 2-1.49l.16-.14a3 3 0 0 0-.3 1.16 2.45 2.45 0 0 0 .17.85 2.26 2.26 0 0 0 2.33 1.22c1.77 0 3.9-1.1 6.33-3.29a4.2 4.2 0 0 0-.33 1.68 1.55 1.55 0 0 0 .61 1.19 2.19 2.19 0 0 0 1.38.43c1.59 0 3.6-1 6-3.08l1.28-1.14a3.35 3.35 0 0 0 .78 3.36 3 3 0 0 0 1.12.68 5.92 5.92 0 0 0 1.92.24 8.6 8.6 0 0 0 2.63-.45A13.11 13.11 0 0 0 99.79 28a15.77 15.77 0 0 0 2.21-1.53c.65-.54 1.22-1.06 1.72-1.55s.92-.93 1.25-1.32a5.79 5.79 0 0 1 .69-.72.24.24 0 0 0 0-.37l-.39-.29a.23.23 0 0 0-.29 0 6.48 6.48 0 0 0-.65.69c-.3.35-.68.77-1.15 1.24a21.94 21.94 0 0 1-1.61 1.5 14.35 14.35 0 0 1-2 1.44 12.44 12.44 0 0 1-2.38 1.09c-1.64.55-3.18.56-3.88 0a1.45 1.45 0 0 1-.54-1.18 4.87 4.87 0 0 1 1-2.43A43.61 43.61 0 0 0 98.25 23c3.4-1.47 5-2.82 4.92-4.14-.07-.88-.84-1.32-2.27-1.32a9.38 9.38 0 0 0-4.31 1.2 17.66 17.66 0 0 0-2.72 1.85 8.62 8.62 0 0 0-2.28 2.67l-1 1A18.62 18.62 0 0 1 89 25.74a21.29 21.29 0 0 1-1.83 1.42 11.89 11.89 0 0 1-1.86 1.06 4.21 4.21 0 0 1-1.73.41c-.65 0-.65-.25-.65-.37a1.83 1.83 0 0 1 .58-1L90 19.94 91.8 18a.26.26 0 0 0-.23-.39 13.05 13.05 0 0 1-2.74 0 .24.24 0 0 0-.2.07l-4.13 4.58a29.17 29.17 0 0 1-6.3 5.53 5 5 0 0 1-2.53.82c-.65 0-.65-.25-.65-.37 0-.73.59-1.76 1.83-3.07l3.66-4c.57-.63 1.58-1.67 3-3.1a.23.23 0 0 0-.22-.39 5.53 5.53 0 0 1-1 0h-.62a8.61 8.61 0 0 1-1.12-.1.23.23 0 0 0-.2.06c-.57.57-1.13 1.15-1.64 1.74L75.55 23l-1.26 1.2c-.5.47-1.06 1-1.66 1.48a20.36 20.36 0 0 1-1.88 1.42 12.1 12.1 0 0 1-1.95 1.06 4.6 4.6 0 0 1-1.79.41c-.65 0-.65-.23-.65-.32a1.3 1.3 0 0 1 .19-.59c.1-.17.24-.4.43-.68s.5-.71.91-1.27S74.41 17.37 86 2.61a.23.23 0 0 0 0-.26.24.24 0 0 0-.23-.12 9.59 9.59 0 0 1-2.49 0 .23.23 0 0 0-.21.09L68.91 20.87zM96.71 21c1.64-1.74 3-2.63 4.06-2.63.51 0 .72.21.72.71a1.53 1.53 0 0 1-.47 1c-1 1.06-3.1 2.15-6.34 3.24.49-.63 1.17-1.4 2.03-2.32zM228 14.77a2.34 2.34 0 0 0 .84-.14 2.38 2.38 0 0 0 .66-.38 1.93 1.93 0 0 0 .48-.57 1.59 1.59 0 0 0 .18-.77 1.19 1.19 0 0 0-.37-.84 1.48 1.48 0 0 0-1.1-.38 1.89 1.89 0 0 0-1.32.56 1.86 1.86 0 0 0-.46.57 1.64 1.64 0 0 0-.17.76 1.13 1.13 0 0 0 .37.83 1.24 1.24 0 0 0 .89.36z"/><path class="cls-1" d="M247.76 22.52l-.39-.29a.23.23 0 0 0-.3 0c-.11.11-.33.35-.64.71s-.68.76-1.13 1.23-1 1-1.52 1.48a17.07 17.07 0 0 1-1.78 1.44 11.2 11.2 0 0 1-1.89 1.06 5 5 0 0 1-2 .41c-.79 0-.9-.15-.9-.15a.92.92 0 0 1 0-.22 8.47 8.47 0 0 1 1.21-1.26 35.65 35.65 0 0 0 4.18-4.72 8.3 8.3 0 0 0 .86-1.56 3.82 3.82 0 0 0 .27-1.33 1.57 1.57 0 0 0-.54-1.22 2.25 2.25 0 0 0-.75-.43 4.25 4.25 0 0 0-2.62.09 9.75 9.75 0 0 0-2.82 1.69 64.61 64.61 0 0 0-5 4.55l2.51-3.19a4.43 4.43 0 0 0 .68-1.1 1.76 1.76 0 0 0 0-1.64 1.74 1.74 0 0 0-1.52-.57c-.87 0-1.9.62-3.16 1.9a17.26 17.26 0 0 0-1.42 1.55 8.67 8.67 0 0 1-1.18 1.29l-.56.59c-.32.34-.73.75-1.2 1.2l-1.65 1.51a20.9 20.9 0 0 1-1.85 1.46 13.48 13.48 0 0 1-1.91 1.11 4.55 4.55 0 0 1-1.95.43c-.32 0-.85 0-.85-.3a2.46 2.46 0 0 1 .6-1.28c.24-.34.61-.81 1.12-1.42s2.81-3.15 6.83-7.53a.23.23 0 0 0 0-.26.24.24 0 0 0-.23-.13 6.9 6.9 0 0 1-.75 0h-.86a4.6 4.6 0 0 1-.85 0 .23.23 0 0 0-.22.07l-2.83 3.06c-.78.87-1.47 1.66-2 2.34l-.31.38c-.3.31-.62.64-1 1s-1 1-1.57 1.43a17.76 17.76 0 0 1-1.73 1.33 10.71 10.71 0 0 1-1.77 1 4 4 0 0 1-1.52.37c-.46 0-.46-.19-.46-.3 0-.39.37-1.26 2.14-3.15l6.19-6.81a.26.26 0 0 0-.24-.39A12.54 12.54 0 0 1 217 18a3.31 3.31 0 0 1-.86-.13.24.24 0 0 0-.23.07l-1.18 1.33v-.21a1.34 1.34 0 0 0-.78-1.15 3.12 3.12 0 0 0-.78-.28 7.83 7.83 0 0 0-3 .09 13.17 13.17 0 0 0-6.8 4.28 8.78 8.78 0 0 0-1.83 2.72c-.45.44-.94.89-1.46 1.34a15.46 15.46 0 0 1-1.68 1.26 10.85 10.85 0 0 1-1.74.92 4.22 4.22 0 0 1-1.68.33c-.43 0-.65-.1-.65-.29a2.21 2.21 0 0 1 .26-.67 29.65 29.65 0 0 1 2.22-3.08l7.54-9.36h5.09c.62 0 .69-.33.69-.48s-.1-.48-.75-.48h-4.25l3.24-4a.23.23 0 0 0 0-.26.24.24 0 0 0-.24-.12 8.66 8.66 0 0 1-2.49 0 .24.24 0 0 0-.22.09l-3.33 4.27h-1.56c-.23 0-.93 0-.93.48 0 .22.14.48.78.48h1l-4.45 5.72-1.09 1.43c-.12.12-.31.33-.59.66s-.68.76-1.13 1.23-1 1-1.52 1.48a17.07 17.07 0 0 1-1.78 1.42 11.2 11.2 0 0 1-1.89 1.06 5 5 0 0 1-2 .41c-.79 0-.9-.15-.9-.15a.92.92 0 0 1 0-.22 8.47 8.47 0 0 1 1.21-1.26 35.65 35.65 0 0 0 4.18-4.72 8.3 8.3 0 0 0 .86-1.56 3.82 3.82 0 0 0 .27-1.33 1.57 1.57 0 0 0-.55-1.22 2.25 2.25 0 0 0-.75-.43 4.25 4.25 0 0 0-2.62.09 9.75 9.75 0 0 0-2.85 1.69 64.61 64.61 0 0 0-5 4.56l2.51-3.19a4.43 4.43 0 0 0 .68-1.1 1.76 1.76 0 0 0 0-1.64 1.74 1.74 0 0 0-1.52-.57c-.87 0-1.9.62-3.16 1.9a17.26 17.26 0 0 0-1.42 1.59 8.67 8.67 0 0 1-1.18 1.29l-1.92 1.94a18.62 18.62 0 0 1-1.63 1.48 21.45 21.45 0 0 1-1.83 1.42 12 12 0 0 1-1.86 1.06 4.21 4.21 0 0 1-1.73.41c-.65 0-.65-.25-.65-.37a1.83 1.83 0 0 1 .58-1l6.5-7.23 1.85-2a.23.23 0 0 0-.19-.39 13.26 13.26 0 0 1-2.74 0 .24.24 0 0 0-.2.07l-4.17 4.58a29.18 29.18 0 0 1-6.3 5.53 5 5 0 0 1-2.53.82c-.65 0-.65-.25-.65-.37 0-.73.59-1.76 1.83-3.07l3.66-4c.57-.63 1.58-1.68 3-3.1a.23.23 0 0 0 0-.28.24.24 0 0 0-.25-.11 5.52 5.52 0 0 1-1 0h-.62a8.62 8.62 0 0 1-1.12-.1.23.23 0 0 0-.2.06c-.57.57-1.13 1.15-1.64 1.74L159.57 23l-.31.32q-.42.4-.92.84a10.69 10.69 0 0 1-1 .79 7 7 0 0 1-1 .58 2.37 2.37 0 0 1-1 .22c-.27 0-.38-.09-.44-.2a11.12 11.12 0 0 0 1.82-2.88 8.57 8.57 0 0 0 .51-1.55 6.09 6.09 0 0 0 .11-1.68 1.85 1.85 0 0 0-.87-1.51 3.26 3.26 0 0 0-1.81-.5A9.08 9.08 0 0 0 150 19a13.79 13.79 0 0 0-2 1.51 13.08 13.08 0 0 0-1.67 1.84 9.81 9.81 0 0 0-1.21 2.15 6.18 6.18 0 0 0-.54 2.26 6.64 6.64 0 0 1-1 .67 8.14 8.14 0 0 1-3.69 1.16c-.83 0-.83-.33-.83-.47a2.46 2.46 0 0 1 .44-1c.24-.39 2.58-3.45 7-9.07l2.94-3.64 2.9-3.4c.94-1.06 1.88-2.06 2.78-3a29 29 0 0 1 2.22-2 14.83 14.83 0 0 1 1.34-1c.43-.26.59-.43.59-.63a.37.37 0 0 0-.35-.39h-.12c-1.52 0-5 2.36-10.68 7.22l-3.62 3.16-3 2.69-2.65 2.45-2.54 2.49-2.67 2.72-1.64 1.75c1.23-1.94 3.4-5.23 6.5-9.82l4.83-6.81 2-2.63a11.59 11.59 0 0 1 1.74-1.84l.53-.37c.21-.18.3-.32.3-.46 0-.4-.55-.4-.73-.4s-.5 0-3 2c-2.21 1.8-4.93 4.3-8.06 7.43l-5.31 5.13c-1.6 1.49-3.07 2.81-4.38 3.92s-2.51 2-3.59 2.82a28.34 28.34 0 0 1-2.92 1.86 12.23 12.23 0 0 1-2.35 1 7.71 7.71 0 0 1-2.14.3 3.21 3.21 0 0 1-1.7-.39 1.1 1.1 0 0 1-.57-.82 2.16 2.16 0 0 0 .58.07 1.5 1.5 0 0 0 1-.3 1 1 0 0 0 .4-.77c0-.37-.18-1-1.35-1a2.12 2.12 0 0 0-1.24.55 1.42 1.42 0 0 0-.54 1.16 2 2 0 0 0 1 1.74 4.82 4.82 0 0 0 2.72.64 9.67 9.67 0 0 0 4-1c3.68-1.73 8.23-5.29 13.51-10.58l4.28-4.26 2.77-2.69q-2 2.24-3.71 4.46c-1.08 1.38-2.06 2.74-2.92 4S132 21.89 131.4 23a22 22 0 0 0-1.4 3 6.8 6.8 0 0 0-.5 2.09 1.57 1.57 0 0 0 .19 1 .59.59 0 0 0 .44.24c.26 0 .73-.18 2-1.57a156.66 156.66 0 0 1 11.37-11.05l6.59-5.7 2.42-2-1.41 1.31-3 2.94-3 3.15-2.89 3.23a34.46 34.46 0 0 0-4.6 6.36 5.62 5.62 0 0 0-.39 1 3.42 3.42 0 0 0-.11.9 1.47 1.47 0 0 0 .63 1.1 2.25 2.25 0 0 0 1.49.51 7.62 7.62 0 0 0 1.5-.14 10.35 10.35 0 0 0 4-1.59 2.28 2.28 0 0 0 .74 1 2.88 2.88 0 0 0 1 .51 5.14 5.14 0 0 0 1.43.18 6.39 6.39 0 0 0 1.71-.24 10.91 10.91 0 0 0 4.64-2.88 1.35 1.35 0 0 0 1 .38 4.58 4.58 0 0 0 2.37-.83c0 .09-.1.19-.14.28a3 3 0 0 0-.27 1.22 2.47 2.47 0 0 0 .17.85 2.26 2.26 0 0 0 2.33 1.22c1.77 0 3.9-1.1 6.33-3.29a4.18 4.18 0 0 0-.33 1.68 1.55 1.55 0 0 0 .61 1.19 2.2 2.2 0 0 0 1.38.43c1.62 0 3.57-1 6-3.08l1.71-1.53a18.17 18.17 0 0 0 1.31-1.28l.68-.7h.06l1.18-1.33c2.37-2.7 3-3 3.21-3h.15a.37.37 0 0 1 0 .26 7.78 7.78 0 0 1-1.18 1.7l-6.37 8.32a.24.24 0 0 0 .25.37 7.56 7.56 0 0 1 1.66-.16 6.48 6.48 0 0 1 1.06.08.23.23 0 0 0 .22-.08l1.7-2a61.25 61.25 0 0 1 4.83-4.93c2.74-2.45 4.7-3.7 5.85-3.7.65 0 .65.25.65.37a2.26 2.26 0 0 1-.51 1.11 12.33 12.33 0 0 1-.77 1c-.33.37-1 1.11-2.08 2.19a19.39 19.39 0 0 0-2.49 3 4.21 4.21 0 0 0-.51 1.11 3.33 3.33 0 0 0-.11.79 1 1 0 0 0 .26.7 3.12 3.12 0 0 0 2.47.84 8 8 0 0 0 4.3-1.53 17.44 17.44 0 0 0 1.59-1.23 3 3 0 0 0-.2.65 5 5 0 0 0 0 .76 1.24 1.24 0 0 0 .6 1 2.79 2.79 0 0 0 1.65.41c1.77 0 3.87-1 6.24-3.13a6 6 0 0 0 0 .7 2.2 2.2 0 0 0 2.49 2.43 4.73 4.73 0 0 0 1.38-.25 11.54 11.54 0 0 0 4-2.46 2.81 2.81 0 0 0-.49 1.43c0 .58.36 1.27 2.07 1.27s3.56-.92 5.76-2.7c0 .1-.08.2-.11.29a3.44 3.44 0 0 0-.21.83 1.27 1.27 0 0 0 .8 1.07 4 4 0 0 0 1.93.41A8.15 8.15 0 0 0 223 27.9a18.86 18.86 0 0 0 2-1.5c.62-.53 1.19-1 1.7-1.54s.93-.92 1.27-1.28l.67-.7 1.18-1.33c2.37-2.7 3-3 3.21-3h.13a.37.37 0 0 1 0 .26 7.78 7.78 0 0 1-1.18 1.7l-6.37 8.32a.23.23 0 0 0 0 .27.24.24 0 0 0 .25.1 7.56 7.56 0 0 1 1.66-.16 6.48 6.48 0 0 1 1.06.08.23.23 0 0 0 .22-.08l1.7-2a61.25 61.25 0 0 1 4.83-4.93c2.74-2.45 4.7-3.7 5.85-3.7.65 0 .65.25.65.37a2.26 2.26 0 0 1-.51 1.11 12.33 12.33 0 0 1-.77 1c-.33.37-1 1.11-2.08 2.19a19.39 19.39 0 0 0-2.49 3 4.21 4.21 0 0 0-.51 1.11 3.33 3.33 0 0 0-.11.79 1 1 0 0 0 .26.7 3.12 3.12 0 0 0 2.47.84 8 8 0 0 0 4.32-1.58 17.47 17.47 0 0 0 1.91-1.5c.59-.54 1.13-1 1.61-1.54s.87-.91 1.2-1.29l.65-.73a.23.23 0 0 0 0-.32zm-93.89 2.76a13.25 13.25 0 0 1-2.45 2.06 5.94 5.94 0 0 1-2.94 1.19 1.85 1.85 0 0 1-.73-.11 1.16 1.16 0 0 1-.68-1.14c-.09-1 .69-2.46 2.31-4.32 2.55-2.91 4.54-4.38 5.91-4.38.46 0 1.08.16 1.16 1.51a5.55 5.55 0 0 1-.76 2.6 2.75 2.75 0 0 0-.55.28 2.59 2.59 0 0 0-1.27 2.31zm49.74 3.25c-.42 0-.59-.18-.59-.61 0-1.15.85-2.68 2.53-4.54a24.38 24.38 0 0 1 2.29-2.23c2.13-1.77 3.76-2.66 4.87-2.66.73 0 1.05.29 1.05.94a4.34 4.34 0 0 1-1 2.06l-1.54 1.69c-3.35 3.55-5.9 5.35-7.61 5.35zM88 48.33a14 14 0 0 0 .64-4.33 8.23 8.23 0 0 0-1.28-4.43 12.69 12.69 0 0 1 6.28-2.79 2.44 2.44 0 0 0 .57-.13.4.4 0 0 0 .23-.39c0-.09 0-.37-.52-.37a16.91 16.91 0 0 0-7.46 2.49C84.42 36.13 81.24 35 77 35a19.42 19.42 0 0 0-7.66 1.53 17.37 17.37 0 0 0-3.06 1.71 13.26 13.26 0 0 0-2.38 2.13 9.33 9.33 0 0 0-1.54 2.43 6.85 6.85 0 0 0-.55 2.72 3.21 3.21 0 0 0 1.51 2.61 4.91 4.91 0 0 0 1.5.76 8.92 8.92 0 0 0 4.87-.17 13.59 13.59 0 0 0 7.51-5 8.22 8.22 0 0 0 1.8-4.99c0-.54-.35-.58-.45-.58a.66.66 0 0 0-.43.6 7.59 7.59 0 0 1-2.29 4.37 16.54 16.54 0 0 1-2.21 2 20.62 20.62 0 0 1-2.5 1.62 15 15 0 0 1-2.46 1.08 7.84 7.84 0 0 1-2.45.39 3.18 3.18 0 0 1-2.07-.69 2.14 2.14 0 0 1-.82-1.77 6.89 6.89 0 0 1 1.95-4.21 16.32 16.32 0 0 1 5.07-4 14.89 14.89 0 0 1 6.76-1.72c3.88 0 6.67 1.06 8.28 3.16a20 20 0 0 0-2.38 1.8c-.74.63-1.4 1.24-2 1.81l-1.66 1.67-3.08 3.39L73.07 51c-1 1-2.06 2-3.27 3.08a16.79 16.79 0 0 1-3.56 2.46h-.09l-1-.27c-.7-.19-1.4-.35-2.08-.48-.4-.07-.76-.12-1.1-.15s-.88 0-1.62 0a5.69 5.69 0 0 0-2.28.49 2.61 2.61 0 0 0-.79.52 1 1 0 0 0-.31.66.93.93 0 0 0 .24.61c.49.59 1.57.87 3.3.87a22.65 22.65 0 0 0 6.49-.93 21.94 21.94 0 0 0 5.64.85 17.24 17.24 0 0 0 7.8-1.87 16.31 16.31 0 0 0 3.27-2.16 14.4 14.4 0 0 0 2.59-2.87 13.89 13.89 0 0 0 1.7-3.48zm-27.24 9.45c-2.84 0-2.87-.45-2.87-.46s.06-.13.61-.29a10.24 10.24 0 0 1 2.5-.22 18.26 18.26 0 0 1 3.62.46 13.22 13.22 0 0 1-3.86.51zm24.13-6.48a14.12 14.12 0 0 1-2.35 2.7 15.07 15.07 0 0 1-2.94 2 15.58 15.58 0 0 1-3.33 1.29 16 16 0 0 1-7.62 0c3.68-1.5 7.26-4.4 10.65-8.63l3.36-4.31a26.14 26.14 0 0 1 3.59-3.88 9.65 9.65 0 0 1 .75 4 12.17 12.17 0 0 1-2.11 6.83zM162 31.45a9.59 9.59 0 0 1-2.49 0 .22.22 0 0 0-.21.09l-14.2 18.54-1 1.37-.89.91c-.36.4-.79.83-1.27 1.3a16.69 16.69 0 0 1-1.57 1.43 17.86 17.86 0 0 1-1.73 1.32 10.63 10.63 0 0 1-1.77 1 4 4 0 0 1-1.52.37c-.47 0-.47-.19-.47-.3 0-.39.37-1.26 2.14-3.15l6.19-6.81a.23.23 0 0 0 0-.26.24.24 0 0 0-.24-.12 12.45 12.45 0 0 1-1.53.06 3.28 3.28 0 0 1-.86-.13.24.24 0 0 0-.23.07l-1.18 1.33v-.21a1.34 1.34 0 0 0-.78-1.15 3.11 3.11 0 0 0-.78-.28 7.89 7.89 0 0 0-3 .09 13.18 13.18 0 0 0-6.85 4.28l-.24.27-1 1c-.37.4-.8.85-1.28 1.32s-1 .94-1.53 1.41a15.42 15.42 0 0 1-1.71 1.26 10.91 10.91 0 0 1-1.74.92 4 4 0 0 1-1.68.33c-.65 0-.65-.22-.65-.29a2.21 2.21 0 0 1 .26-.67 29.69 29.69 0 0 1 2.22-3.08l7.59-9.31h5.09c.6 0 .69-.3.69-.48s-.1-.48-.75-.48h-4.25l3.24-4a.23.23 0 0 0 0-.26.24.24 0 0 0-.24-.12 8.7 8.7 0 0 1-2.49 0 .23.23 0 0 0-.22.09l-3.33 4.27h-1.56c-.23 0-.93 0-.93.48 0 .22.14.48.78.48h1l-4.45 5.72-1.09 1.43c-.12.12-.31.33-.59.66s-.68.76-1.13 1.23-1 1-1.52 1.48a17 17 0 0 1-1.78 1.42 11.29 11.29 0 0 1-1.89 1.06 5 5 0 0 1-2 .41c-.79 0-.9-.15-.9-.15a.89.89 0 0 1 0-.22 8.41 8.41 0 0 1 1.32-1.24 35.84 35.84 0 0 0 4.18-4.72 8.24 8.24 0 0 0 .86-1.56 3.85 3.85 0 0 0 .27-1.33 1.57 1.57 0 0 0-.54-1.22 2.26 2.26 0 0 0-.75-.43 4.21 4.21 0 0 0-2.62.09 9.77 9.77 0 0 0-2.85 1.69 64.41 64.41 0 0 0-5 4.56L107 50a4.4 4.4 0 0 0 .68-1.1 1.75 1.75 0 0 0 0-1.64 1.73 1.73 0 0 0-1.52-.57c-.87 0-1.9.62-3.16 1.9a17.27 17.27 0 0 0-1.42 1.55 8.67 8.67 0 0 1-1.18 1.29 6.39 6.39 0 0 0-.63.68c-.3.35-.68.77-1.15 1.24a21.94 21.94 0 0 1-1.62 1.5 14.28 14.28 0 0 1-2 1.44 12.43 12.43 0 0 1-2.38 1.09c-1.64.55-3.19.56-3.88 0a1.46 1.46 0 0 1-.48-1.26 4.87 4.87 0 0 1 1-2.43 43.83 43.83 0 0 0 4.48-1.58c3.4-1.47 5-2.82 4.92-4.14-.07-.88-.84-1.32-2.27-1.32a9.39 9.39 0 0 0-4.31 1.2 17.74 17.74 0 0 0-2.72 1.85A8.55 8.55 0 0 0 87 52.53c-1.21 2.32-1.2 4.11 0 5.32a3 3 0 0 0 1.12.68 5.9 5.9 0 0 0 1.92.24 8.61 8.61 0 0 0 2.63-.45 13.1 13.1 0 0 0 2.56-1.14 15.83 15.83 0 0 0 2.16-1.51c.64-.54 1.22-1.06 1.72-1.55a17.33 17.33 0 0 0 1.24-1.32 5.8 5.8 0 0 1 .69-.72l1.18-1.33c2.38-2.7 3-3 3.21-3h.13a.37.37 0 0 1 0 .26 7.85 7.85 0 0 1-1.19 1.7L98 58a.23.23 0 0 0 .24.37 7.62 7.62 0 0 1 1.66-.16 6.34 6.34 0 0 1 1.06.08.24.24 0 0 0 .22-.08l1.7-2a61.64 61.64 0 0 1 4.83-4.93c2.74-2.46 4.7-3.7 5.85-3.7.65 0 .65.25.65.37a2.26 2.26 0 0 1-.51 1.11 12.21 12.21 0 0 1-.77 1c-.33.38-1 1.11-2.08 2.19a19.31 19.31 0 0 0-2.48 3 4.18 4.18 0 0 0-.51 1.11 3.3 3.3 0 0 0-.11.79 1 1 0 0 0 .26.7 3.12 3.12 0 0 0 2.47.84 8 8 0 0 0 4.32-1.58 17.52 17.52 0 0 0 1.59-1.23 3 3 0 0 0-.2.65 5 5 0 0 0 0 .76 1.24 1.24 0 0 0 .6 1 2.76 2.76 0 0 0 1.65.41c2 0 4.41-1.35 7.16-4a6.05 6.05 0 0 0-.21 1.55 2.2 2.2 0 0 0 2.61 2.46 4.73 4.73 0 0 0 1.38-.25 11.54 11.54 0 0 0 4-2.46 2.81 2.81 0 0 0-.49 1.43c0 .58.36 1.27 2.07 1.27s3.9-1.07 6.34-3.17l-.15.31a3.06 3.06 0 0 0-.21.66 4.71 4.71 0 0 0 0 .75 1.29 1.29 0 0 0 .6 1 2.27 2.27 0 0 0 1.42.43 8.59 8.59 0 0 0 4.41-1.58 20 20 0 0 0 2-1.49c.64-.54 1.23-1 1.75-1.53s1-.92 1.33-1.28.6-.61.73-.73a.23.23 0 0 0 0-.32l-.37-.29a.23.23 0 0 0-.3 0c-.12.11-.36.35-.7.71l-1.26 1.24c-.5.46-1.06 1-1.66 1.48a20.52 20.52 0 0 1-1.89 1.38 12.16 12.16 0 0 1-2 1.1 4.6 4.6 0 0 1-1.79.41c-.65 0-.65-.23-.65-.32a1.3 1.3 0 0 1 .19-.59c.1-.17.24-.4.43-.68s.5-.71.91-1.27 6.52-8.33 18.14-23.09a.23.23 0 0 0-.21-.37zM92.23 50.21c1.64-1.74 3-2.63 4.06-2.63.51 0 .72.21.72.71a1.52 1.52 0 0 1-.47 1c-1 1.06-3.1 2.15-6.34 3.25.49-.63 1.17-1.41 2.03-2.33zM128 57.74c-.42 0-.59-.18-.59-.61 0-1.15.85-2.68 2.53-4.54a24.23 24.23 0 0 1 2.29-2.23c2.13-1.77 3.76-2.67 4.87-2.67.73 0 1.05.29 1.05.94a4.34 4.34 0 0 1-1 2.06l-1.54 1.69c-3.3 3.56-5.85 5.36-7.61 5.36zm58.53-9.3a2.26 2.26 0 0 0-.9-1.83 3.79 3.79 0 0 0-2.41-.7 8.8 8.8 0 0 0-2.86.46 11.72 11.72 0 0 0-4.89 3.22 12.08 12.08 0 0 0-3.47 8.08 2.61 2.61 0 0 1-2.22-2.8c0-2.08 1.87-5 5.55-8.75a29.06 29.06 0 0 0 8.37-1.82 30.32 30.32 0 0 0 7.37-3.79c2.17-1.59 3.22-3 3.22-4.33 0-.67-.34-1.47-1.94-1.47a22.78 22.78 0 0 0-10.54 3.1 34 34 0 0 0-9.32 7.27 5.27 5.27 0 0 1-2.49-1.22 3.07 3.07 0 0 1-.66-.88 2.74 2.74 0 0 1-.22-1.19 3.53 3.53 0 0 1 .52-1.66 9.41 9.41 0 0 1 3.4-3.37 14.54 14.54 0 0 1 7.62-2.35l1.35.07c.45 0 .47-.31.47-.37 0-.38-.47-.52-1.72-.52a17.4 17.4 0 0 0-6.37 1.22 16.08 16.08 0 0 0-2.64 1.31 12.44 12.44 0 0 0-2.08 1.6 7.45 7.45 0 0 0-1.37 1.77 3.77 3.77 0 0 0-.51 1.8 4.6 4.6 0 0 0 .27 1.59 4.91 4.91 0 0 0 3.73 3c-2.47 3-3.72 5.8-3.72 8.38a4.62 4.62 0 0 0 .33 1.74 4.33 4.33 0 0 0 3.6 2.63 9.62 9.62 0 0 0 .22 1.61c.45 2 .92 2.83 1.53 2.83.39 0 .4-.28.4-.32v-.08a.45.45 0 0 0-.13-.28 6.39 6.39 0 0 1-1-3.68h.09a14.27 14.27 0 0 0 6.8-1.71 15.27 15.27 0 0 0 2.71-1.85A14.47 14.47 0 0 0 184.7 53a10.41 10.41 0 0 0 1.3-2.31 5.73 5.73 0 0 0 .53-2.25zm-1.82-9.8c3.24-2 5.75-3.07 7.46-3.07 1.2 0 1.2.48 1.2.66a2.33 2.33 0 0 1-.8 1.43 21.18 21.18 0 0 1-5.5 3.76 33.84 33.84 0 0 1-10.74 3.71 51.54 51.54 0 0 1 8.39-6.49zm-2.13 13.15a18.74 18.74 0 0 1-4.3 4.14 9.12 9.12 0 0 1-5 1.87H173a10.71 10.71 0 0 1 1.65-5.45 13 13 0 0 1 1.79-2.27 13.14 13.14 0 0 1 2.12-1.75 10.3 10.3 0 0 1 2.24-1.12 6.29 6.29 0 0 1 2-.39 2.08 2.08 0 0 1 1.23.26 1 1 0 0 1 .31.82 7.27 7.27 0 0 1-1.75 3.89zm46.31-.34a.23.23 0 0 0-.28 0 6.06 6.06 0 0 0-.65.69c-.3.35-.68.77-1.15 1.24a21.94 21.94 0 0 1-1.61 1.5 14.31 14.31 0 0 1-2 1.44 12.41 12.41 0 0 1-2.38 1.09c-1.64.55-3.19.56-3.88 0a1.45 1.45 0 0 1-.49-1.26 4.87 4.87 0 0 1 1-2.43 43.85 43.85 0 0 0 4.48-1.58c3.4-1.47 5-2.82 4.92-4.14-.07-.88-.84-1.32-2.27-1.32a9.38 9.38 0 0 0-4.31 1.2 17.72 17.72 0 0 0-2.72 1.85 8.58 8.58 0 0 0-2.3 2.7l-1 1-1.59 1.45a20.53 20.53 0 0 1-1.77 1.36 12.29 12.29 0 0 1-1.75 1 3.64 3.64 0 0 1-1.5.38c-.3 0-.49-.09-.49-.55a4.22 4.22 0 0 1 1-2.06 16 16 0 0 1 1.05-1.34c.4-.46.83-.93 1.27-1.37s.92-.88 1.38-1.29a9.71 9.71 0 0 1 1.3-1c.58-.42.69-.61.69-.78s-.13-.46-.74-.48a17.3 17.3 0 0 1-2-.25l-2-.37a4.64 4.64 0 0 1-1.22-.34 1.13 1.13 0 0 1 .29-.77l.33-.52a1.45 1.45 0 0 0 .2-.78c0-.46-.24-1-1.39-1a1.58 1.58 0 0 0-1.29.75 2.25 2.25 0 0 0-.36.76 2 2 0 0 0 0 .92 1.43 1.43 0 0 0 .67.85 19.81 19.81 0 0 1-2.38 3.22l-.21.23-.89.91c-.36.4-.79.83-1.27 1.3a16.69 16.69 0 0 1-1.58 1.43 17.87 17.87 0 0 1-1.73 1.33 10.6 10.6 0 0 1-1.77 1 4 4 0 0 1-1.52.37c-.46 0-.46-.19-.46-.3 0-.39.37-1.26 2.14-3.15l6.19-6.81a.23.23 0 0 0 0-.26.24.24 0 0 0-.24-.12 12.46 12.46 0 0 1-1.53.06 3.27 3.27 0 0 1-.86-.13.24.24 0 0 0-.23.07l-1.18 1.33v-.21a1.34 1.34 0 0 0-.81-1.17 3.14 3.14 0 0 0-.78-.28 7.88 7.88 0 0 0-3 .09 13.18 13.18 0 0 0-6.85 4.28 7.34 7.34 0 0 0-2.37 5.09 2.2 2.2 0 0 0 2.49 2.43 4.73 4.73 0 0 0 1.38-.25 11.54 11.54 0 0 0 4-2.46 2.8 2.8 0 0 0-.49 1.43c0 .58.36 1.27 2.07 1.27 2.37 0 5.38-1.9 8.93-5.66l.28-.29a18.75 18.75 0 0 0 3.44-4.29 27.05 27.05 0 0 0 4.62 1c-5.08 3.17-7.55 5.54-7.55 7.25a1.71 1.71 0 0 0 .73 1.45 3 3 0 0 0 1.82.52c2.16 0 4.74-1.42 7.67-4.21a3.35 3.35 0 0 0 .78 3.35 3 3 0 0 0 1.12.68 5.89 5.89 0 0 0 1.92.24 8.6 8.6 0 0 0 2.63-.45 13.07 13.07 0 0 0 2.56-1.14 15.89 15.89 0 0 0 2.16-1.51c.64-.54 1.22-1.06 1.72-1.55a17.33 17.33 0 0 0 1.24-1.32 5.53 5.53 0 0 1 .69-.72.23.23 0 0 0 0-.32zm-8.51-1.23c1.64-1.74 3-2.63 4.06-2.63.51 0 .72.21.72.71a1.52 1.52 0 0 1-.47 1c-1 1.06-3.1 2.15-6.34 3.25.49-.64 1.17-1.42 2-2.34zm-32.74 7.53c-.42 0-.59-.18-.59-.61 0-1.15.85-2.68 2.53-4.54a24.16 24.16 0 0 1 2.29-2.23c2.13-1.77 3.76-2.67 4.87-2.67.73 0 1.05.29 1.05.94a4.34 4.34 0 0 1-1 2.06l-1.54 1.69c-3.35 3.55-5.89 5.35-7.61 5.35zM84.88 77a4.36 4.36 0 0 1-1.8-.38 3.7 3.7 0 0 1-1.33-.95 4.67 4.67 0 0 1-.75-1.32 8.43 8.43 0 0 1-.52-3 7.53 7.53 0 0 1 .52-2.94 4.68 4.68 0 0 1 .83-1.31 3.79 3.79 0 0 1 1.35-.92 5 5 0 0 1 2-.36 9.48 9.48 0 0 1 3.75.84l-.44.89a7.39 7.39 0 0 0-3.31-.83 3.26 3.26 0 0 0-1.73.44 2.55 2.55 0 0 0-1 1.18 7 7 0 0 0-.6 2.92 6.57 6.57 0 0 0 .88 3.7 2.69 2.69 0 0 0 1 .84 3.31 3.31 0 0 0 3.42-.3 2.46 2.46 0 0 0 .79-2v-1.27l-2.14-.1v-.86h2.79q.58 0 .58.44v1.81a3.09 3.09 0 0 1-1.23 2.78 5.16 5.16 0 0 1-3.06.7zm13.55-4.15H92a3.48 3.48 0 0 0 1 2.56 2.61 2.61 0 0 0 2 .73 6.33 6.33 0 0 0 2.67-.67l.41.86a7.44 7.44 0 0 1-2.91.71 5 5 0 0 1-2.17-.38 3.25 3.25 0 0 1-1.29-1 4.94 4.94 0 0 1-.91-2.92 5.54 5.54 0 0 1 .88-3.18 3.06 3.06 0 0 1 1.24-1 4.27 4.27 0 0 1 1.84-.37 3.48 3.48 0 0 1 2.72 1.08 4.13 4.13 0 0 1 1 2.89zm-1.93-3a2.25 2.25 0 0 0-1.86-.85 2.12 2.12 0 0 0-1.83.84 4.13 4.13 0 0 0-.73 2.16h5.07a3.34 3.34 0 0 0-.65-2.13zm3.86 2.67a4.64 4.64 0 0 1 1-3.22 3.73 3.73 0 0 1 2.92-1.14 3.88 3.88 0 0 1 3 1.22 4.7 4.7 0 0 1 1.12 3.3 4.62 4.62 0 0 1-1 3.22 3.76 3.76 0 0 1-2.93 1.1 3.85 3.85 0 0 1-3-1.22 4.72 4.72 0 0 1-1.11-3.26zm6.79.15a4.16 4.16 0 0 0-.76-2.64 2.48 2.48 0 0 0-2.06-1 2.39 2.39 0 0 0-2 .9 4.08 4.08 0 0 0-.71 2.56 4.14 4.14 0 0 0 .77 2.64 2.48 2.48 0 0 0 2.05 1 2.4 2.4 0 0 0 2-.9 4.06 4.06 0 0 0 .71-2.56zm7.36 4.16h-4v-.77l1.13-.1v-6.78h-1.13v-.81h1.13a3.61 3.61 0 0 1 .83-2.35 3.06 3.06 0 0 1 2.34-.81 3.86 3.86 0 0 1 1.78.38l-.34.87a2.79 2.79 0 0 0-1.48-.36q-1.73 0-1.86 2.25h1.91v.81h-1.91V76l1.6.1zm5.8 0h-4v-.77l1.13-.1v-6.78h-1.13v-.81h1.13a3.61 3.61 0 0 1 .83-2.35 3.06 3.06 0 0 1 2.34-.81 3.86 3.86 0 0 1 1.78.38l-.34.87a2.79 2.79 0 0 0-1.48-.36q-1.73 0-1.86 2.25h1.91v.81h-1.91V76l1.6.1zm12.89-9.4a6.77 6.77 0 0 0-2.76-.71 2.94 2.94 0 0 0-1.82.48 1.56 1.56 0 0 0-.62 1.3 1.71 1.71 0 0 0 .62 1.36 5 5 0 0 0 1.49.87q.88.33 1.74.7a4.15 4.15 0 0 1 1.48 1.06 2.43 2.43 0 0 1 .62 1.68 2.49 2.49 0 0 1-1 2.11 4.27 4.27 0 0 1-2.63.76 4.09 4.09 0 0 1-2.61-.79 3.86 3.86 0 0 1-1.37-2.25l1.13-.25q.66 2.36 2.72 2.35a2.8 2.8 0 0 0 1.81-.52 1.76 1.76 0 0 0 .64-1.45 1.86 1.86 0 0 0-1.18-1.66 12 12 0 0 0-1.15-.51q-.63-.24-1.27-.53a7.79 7.79 0 0 1-1.17-.64 2.66 2.66 0 0 1-1.18-2.27 2.35 2.35 0 0 1 1-2 4.31 4.31 0 0 1 2.58-.72 8.71 8.71 0 0 1 3.33.73zm2 1.75v-.81h1.41v-1.93l1.28-.27v2.19h1.77v.81h-1.77v6.06q0 .8.71.8a2.56 2.56 0 0 0 .91-.16l.15.9a4.61 4.61 0 0 1-1.53.27 1.48 1.48 0 0 1-1.14-.41 1.88 1.88 0 0 1-.37-1.3v-6.15zm14.23-.36v6.41q0 .81.71.81a2.08 2.08 0 0 0 .66-.09l.16.89a4.51 4.51 0 0 1-1.25.19 1.35 1.35 0 0 1-1.52-1.14A5.79 5.79 0 0 1 145 77a3 3 0 0 1-2.16-.64 2.77 2.77 0 0 1-.63-2v-5.11l-1.21-.12v-.77h1.86q.55 0 .55.46v5.57a2 2 0 0 0 .36 1.35 1.61 1.61 0 0 0 1.26.41 5.12 5.12 0 0 0 3.14-1.15v-5.75l-1-.12v-.77h1.75q.51 0 .51.46zm8.75 6.55v-.21a3.53 3.53 0 0 1-3.3 1.84 2.44 2.44 0 0 1-1.73-.61 2.16 2.16 0 0 1-.65-1.66 2.34 2.34 0 0 1 1.3-2.16 9.63 9.63 0 0 1 4.39-.73v-.62a2.37 2.37 0 0 0-.5-1.75 2.32 2.32 0 0 0-1.63-.47 5.64 5.64 0 0 0-2.52.71l-.42-.89a8.11 8.11 0 0 1 3.18-.71q2.35 0 2.93 1.51a4.15 4.15 0 0 1 .24 1.51v4.06q0 .81.68.81a3.62 3.62 0 0 0 .66-.09l.15.89a4.24 4.24 0 0 1-1.23.19q-1.55.01-1.55-1.62zm0-2.72q-4.47 0-4.47 2a1.36 1.36 0 0 0 .41 1.06 1.65 1.65 0 0 0 1.16.38 2.72 2.72 0 0 0 2-.86 3.51 3.51 0 0 0 .89-2.44zm6.88.04V76l1.62.1v.77h-4v-.77l1.13-.1v-6.75l-1.13-.12v-.77h1.72q.5 0 .5.46v1.84a4.5 4.5 0 0 1 1.32-1.74 3.47 3.47 0 0 1 2.13-.76v1a3.28 3.28 0 0 0-2.31 1 3.42 3.42 0 0 0-.98 2.53zm3.94-3.51v-.81h1.41v-1.93l1.28-.27v2.19h1.77v.81h-1.77v6.06q0 .8.71.8a2.57 2.57 0 0 0 .91-.16l.15.9a4.62 4.62 0 0 1-1.53.27 1.48 1.48 0 0 1-1.14-.41 1.88 1.88 0 0 1-.37-1.3v-6.15zm7.11 6.49a.63.63 0 0 1 .35.56v.08a2.09 2.09 0 0 1-.26.92l-.1.18a4 4 0 0 1-.54.64l-.09.1-.14.12-.28.2-.33-.34.16-.14a2.52 2.52 0 0 0 .34-.5 1 1 0 0 0 .08-.4v-.17a.39.39 0 0 1-.05-.19v-.2a.39.39 0 0 1 0-.13v-.22a.77.77 0 0 1 .18-.41l.13-.08h.57zm6.17-7.6h3.6a3.88 3.88 0 0 1 3 1.12 5.64 5.64 0 0 1 0 6.52 3.88 3.88 0 0 1-3 1.12h-3.6v-.62l.81-.08v-7.34l-.81-.1zm1.87.66v7.44h1.79a2.61 2.61 0 0 0 2.19-1 5.42 5.42 0 0 0 0-5.52 2.61 2.61 0 0 0-2.19-1zm7.47-.66h3.6a3.88 3.88 0 0 1 3 1.12 5.64 5.64 0 0 1 0 6.52 3.88 3.88 0 0 1-3 1.12h-3.6v-.62l.81-.08v-7.34l-.81-.1zm1.87.66v7.44h1.79a2.61 2.61 0 0 0 2.19-1 5.42 5.42 0 0 0 0-5.52 2.61 2.61 0 0 0-2.19-1zm12.57.48a5.5 5.5 0 0 0-2.23-.58 2.39 2.39 0 0 0-1.48.39 1.26 1.26 0 0 0-.51 1.06 1.39 1.39 0 0 0 .5 1.1 4 4 0 0 0 1.21.7q.71.27 1.41.57a3.38 3.38 0 0 1 1.2.86 2.14 2.14 0 0 1-.33 3.07 3.46 3.46 0 0 1-2.13.62 3.32 3.32 0 0 1-2.11-.64 3.13 3.13 0 0 1-1.09-1.79l.92-.2a2.22 2.22 0 0 0 2.21 1.91 2.27 2.27 0 0 0 1.46-.42 1.43 1.43 0 0 0 .52-1.18 1.51 1.51 0 0 0-1-1.34 9.48 9.48 0 0 0-.93-.41q-.51-.2-1-.43a6.4 6.4 0 0 1-.95-.52 2.2 2.2 0 0 1-.69-.76 2.17 2.17 0 0 1-.26-1.08 1.9 1.9 0 0 1 .81-1.64 3.49 3.49 0 0 1 2.09-.58 7.06 7.06 0 0 1 2.7.59z"/></svg>